<?xml version="1.0" encoding="UTF-8" standalone="no"?>
<svg
   xmlns:dc="http://purl.org/dc/elements/1.1/"
   xmlns:cc="http://creativecommons.org/ns#"
   xmlns:rdf="http://www.w3.org/1999/02/22-rdf-syntax-ns#"
   xmlns:svg="http://www.w3.org/2000/svg"
   xmlns="http://www.w3.org/2000/svg"
   id="svg113"
   version="1.1"
   viewBox="0 0 1370 1114.76">
  <metadata
     id="metadata117">
    <rdf:RDF>
      <cc:Work
         rdf:about="">
        <dc:format>image/svg+xml</dc:format>
        <dc:type
           rdf:resource="http://purl.org/dc/dcmitype/StillImage" />
      </cc:Work>
    </rdf:RDF>
  </metadata>
  <defs
     id="defs4">
    <style
       id="style2">.cls-1{isolation:isolate;}.cls-2{fill:#ebf1f6;}.cls-3{opacity:0.5;mix-blend-mode:multiply;}.cls-4{opacity:0.45;}.cls-5,.cls-6{fill:#679ed0;}.cls-6{fill-rule:evenodd;}.cls-7{fill:#f7bd30;}.cls-8{fill:#1f4476;}.cls-9{fill:#fff;}.cls-10{fill:#7ca6de;}.cls-11{fill:#f0562d;}.cls-12{fill:#f37f69;}.cls-13{fill:#41b6e6;}.cls-14{fill:#afe7ff;}.cls-15{fill:#00b388;}.cls-16{fill:#5cb8b2;}</style>
  </defs>
  <g
     id="g111"
     class="cls-1">
    <g
       data-name="Layer 1"
       id="Layer_1">
      <path
         id="path6"
         transform="translate(-122 -94.68)"
         d="M325.91,1031.07C-93.8,826.61,506.19,900.58,577.73,565.27c52.73-247.13,537.49-369.34,842.73-65.25,294.44,293.31-429.31,193.69-212.7,373.13C1472.51,1092.48,954.38,1337.22,325.91,1031.07Z"
         class="cls-2" />
      <g
         id="g10"
         class="cls-3">
        <path
           id="path8"
           transform="translate(-122 -94.68)"
           d="M279.2,1042.92C-163.59,842.57,462.94,901.8,527.47,550.77c47.56-258.72,548.37-400.22,875-92.82,315.06,296.51-441,214.24-210.31,394.56C1474.15,1072.91,942.22,1342.9,279.2,1042.92Z"
           class="cls-2" />
      </g>
      <g
         id="g26"
         class="cls-4">
        <path
           id="path12"
           transform="translate(-122 -94.68)"
           d="M1369.14,515.18a17.54,17.54,0,1,0-21.33-1.31A17.55,17.55,0,0,0,1369.14,515.18Z"
           class="cls-5" />
        <ellipse
           id="ellipse14"
           transform="translate(425.58 1566.9) rotate(-86.47)"
           ry="23.31"
           rx="23.43"
           cy="539.59"
           cx="1157.4"
           class="cls-5" />
        <ellipse
           id="ellipse16"
           transform="translate(320.01 1340.74) rotate(-86.48)"
           ry="17.49"
           rx="17.58"
           cy="482.69"
           cx="984.23"
           class="cls-5" />
        <path
           id="path18"
           transform="translate(-122 -94.68)"
           d="M1450.43,405.89a11.69,11.69,0,1,0-16.5-1A11.69,11.69,0,0,0,1450.43,405.89Z"
           class="cls-5" />
        <circle
           id="circle20"
           transform="translate(535.96 1532.79) rotate(-86.48)"
           r="5.85"
           cy="463.93"
           cx="1194.23"
           class="cls-5" />
        <rect
           id="rect22"
           transform="translate(51.41 1165.5) rotate(-51.24)"
           height="2.34"
           width="131.69"
           y="448.13"
           x="1334.7"
           class="cls-5" />
        <polygon
           id="polygon24"
           points="1236.67 406.93 1237.99 405 1071.75 367.51 1036.29 443.92 861.8 386.81 861.07 389.04 1037.54 446.79 1072.71 370.99 1236.67 406.93"
           class="cls-5" />
      </g>
      <g
         id="g42"
         class="cls-4">
        <path
           id="path28"
           transform="translate(-122 -94.68)"
           d="M330.68,1207.9a30.15,30.15,0,1,1,34.7-12.06A30.16,30.16,0,0,1,330.68,1207.9Z"
           class="cls-5" />
        <ellipse
           id="ellipse30"
           transform="translate(-444.03 164.98) rotate(-19.17)"
           ry="40.27"
           rx="40.07"
           cy="1083.21"
           cx="607.73"
           class="cls-5" />
        <ellipse
           id="ellipse32"
           transform="translate(-372.22 240.6) rotate(-19.16)"
           ry="30.21"
           rx="30.06"
           cy="908.79"
           cx="867.97"
           class="cls-5" />
        <path
           id="path34"
           transform="translate(-122 -94.68)"
           d="M145.49,1064.69a20.09,20.09,0,1,1,26.84-9.32A20.09,20.09,0,0,1,145.49,1064.69Z"
           class="cls-5" />
        <circle
           id="circle36"
           transform="translate(-413.64 127.25) rotate(-19.16)"
           r="10.05"
           cy="975.06"
           cx="511.71"
           class="cls-5" />
        <rect
           id="rect38"
           transform="translate(-923.6 572.37) rotate(-54.4)"
           height="226.33"
           width="4.02"
           y="1000.25"
           x="246.16"
           class="cls-5" />
        <polygon
           id="polygon40"
           points="219.72 1085.9 216.65 1083.32 389.7 877.27 483.8 987.32 746.13 811.93 748.36 815.27 483.07 992.64 389.73 883.49 219.72 1085.9"
           class="cls-5" />
      </g>
      <g
         id="g50"
         class="cls-4">
        <path
           id="path44"
           transform="translate(-122 -94.68)"
           d="M287,627.09v11a52.12,52.12,0,1,1-36.8,15.27l-7.74-7.75A63,63,0,1,0,287,627.09Z"
           class="cls-5" />
        <path
           id="path46"
           transform="translate(-122 -94.68)"
           d="M287,649v11a30.14,30.14,0,1,1-30.14,30.14h-11A41.1,41.1,0,1,0,287,649Z"
           class="cls-5" />
        <path
           id="path48"
           transform="translate(-122 -94.68)"
           d="M287,670.93v11a8.22,8.22,0,1,1-5.81,14l-7.75,7.75A19.18,19.18,0,1,0,287,670.93Z"
           class="cls-5" />
      </g>
      <g
         id="g58"
         class="cls-4">
        <path
           id="path52"
           transform="translate(-122 -94.68)"
           d="M1320.73,760.68a57.81,57.81,0,0,0-.07-9.31l8.4-2.8c-.1-.55-.21-1.1-.31-1.65-.46-2.45-.93-4.9-1.39-7.35-.1-.55-.21-1.1-.31-1.65l-9.12.46a56.8,56.8,0,0,0-3.61-8.45l6.64-6.26-1-1.37-4.35-6.09c-.33-.45-.65-.91-1-1.37l-7.83,4.13a57.9,57.9,0,0,0-6.62-6.48l3.77-8.24-1.42-.9q-3.16-2-6.32-4l-1.42-.9-5.74,6.81a56.49,56.49,0,0,0-8.59-3.41l.26-9.09-1.66-.28-7.38-1.22-1.66-.27-2.61,8.46a58.17,58.17,0,0,0-9.25.14l-3.31-8.52-1.64.4-7.27,1.74-1.64.39c1.18,11.69,2,7.36-7.6,12.51l-6.21-6.6-1.37,1-6.09,4.35-1.37,1,4.15,7.87a57.94,57.94,0,0,0-6.43,6.67l-8.19-3.75-.9,1.43-4,6.32-.9,1.42,6.85,5.76a57.11,57.11,0,0,0-3.34,8.63l-9-.26c-.1.55-.19,1.11-.28,1.66-.41,2.46-.81,4.92-1.22,7.38l-.27,1.66,8.51,2.62a55.84,55.84,0,0,0,.21,9.25l-8.46,3.29.39,1.64c.58,2.42,1.17,4.85,1.75,7.27l.39,1.64,8.85-.9a57.33,57.33,0,0,0,3.77,8.47l-6.56,6.17,1,1.37,4.35,6.09,1,1.37,7.91-4.17a57.15,57.15,0,0,0,6.73,6.37l-3.73,8.14,1.43.9,6.32,4,1.42.9,5.8-6.89a56.74,56.74,0,0,0,8.65,3.28l-.26,9,1.66.28,7.38,1.22,1.66.27,2.64-8.56a55.83,55.83,0,0,0,9.25-.29l3.27,8.41,1.64-.39,7.27-1.75,1.63-.39-.89-8.89a56.8,56.8,0,0,0,8.43-3.85l6.14,6.52,1.37-1,6.09-4.35,1.37-1-4.2-8a58,58,0,0,0,6.32-6.78l8.09,3.7.9-1.42,4-6.32.9-1.42-6.93-5.84a55.8,55.8,0,0,0,2.67-6.91l9.16.26.28-1.66,1.22-7.38.27-1.66-8.42-2.6ZM1285,769.33a25.37,25.37,0,1,1-8.64-34.82A25.36,25.36,0,0,1,1285,769.33Z"
           class="cls-6" />
        <path
           id="path54"
           transform="translate(-122 -94.68)"
           d="M1127.78,719.35a36.43,36.43,0,0,1-.74-6l-5.65-1.1.06-1.09.27-4.85c0-.36,0-.73.07-1.09l5.9-.47a38,38,0,0,1,1.62-5.75l-4.81-3.46c.17-.33.34-.65.52-1l2.28-4.28c.17-.33.34-.65.52-1l5.39,2a36.6,36.6,0,0,1,3.71-4.73l-3.12-5,.84-.7,3.73-3.11.84-.7,4.26,3.9a37.14,37.14,0,0,1,5.25-2.92l-.93-5.83,1-.32,4.65-1.4,1-.32,2.39,5.23a36.91,36.91,0,0,1,6-.69l1.41-5.77,1.09.12,4.83.51,1.08.11c.23,7.62-.67,4.91,6,7.41l3.45-4.77,1,.52,4.29,2.28,1,.52-2,5.41a37.69,37.69,0,0,1,4.71,3.76l5-3.1.7.84,3.11,3.73.7.84-3.92,4.29a36.62,36.62,0,0,1,2.88,5.27l5.79-.93c.11.35.21.7.32,1.05q.7,2.32,1.4,4.64c.11.35.22.7.32,1l-5.26,2.41a36.82,36.82,0,0,1,.65,6l5.72,1.4c0,.37-.07.73-.11,1.09l-.51,4.83-.12,1.09-5.77.17a37.17,37.17,0,0,1-1.72,5.77l4.75,3.42c-.18.32-.35.64-.52,1l-2.28,4.29-.52,1-5.44-2a37.9,37.9,0,0,1-3.8,4.68l3.09,4.92-.84.7-3.73,3.11c-.29.23-.56.47-.84.7l-4.32-4a35.81,35.81,0,0,1-5.3,2.84l.93,5.76-1.05.32-4.65,1.4-1,.32-2.42-5.29a37,37,0,0,1-6,.6l-1.4,5.68-1.08-.11-4.83-.51-1.09-.12-.17-5.8a36.86,36.86,0,0,1-5.76-1.76l-3.4,4.71-1-.51-4.29-2.29-1-.51,2-5.48a37.75,37.75,0,0,1-4.64-3.83l-4.9,3.07-.7-.84-3.11-3.73-.7-.84,4-4.35a36.45,36.45,0,0,1-2.3-4.22l-5.88.94-.32-1.05-1.4-4.65-.32-1,5.21-2.38Zm23.74,2.55a16.47,16.47,0,1,0,2.62-23.15A16.48,16.48,0,0,0,1151.52,721.9Z"
           class="cls-6" />
        <path
           id="path56"
           transform="translate(-122 -94.68)"
           d="M1265,662.86a42.61,42.61,0,0,1-1.63-6.83l-6.66-.53c0-.42,0-.84-.07-1.26-.11-1.88-.21-3.76-.32-5.64,0-.42,0-.84-.07-1.26L1263,646a42.61,42.61,0,0,1,1.12-6.84l-6-3.38c.16-.39.31-.79.47-1.18.7-1.75,1.39-3.49,2.08-5.24.16-.39.32-.79.47-1.18l6.48,1.61a43.74,43.74,0,0,1,3.67-5.94l-4.25-5.35.88-.92,3.9-4.07.88-.92,5.43,4a43.71,43.71,0,0,1,5.67-4.05l-1.83-6.61,1.17-.5,5.18-2.22,1.16-.51,3.44,5.73a42,42,0,0,1,6.8-1.57l.88-6.84h1.27l5.64,0h1.27c1.25,8.76-.14,5.74,7.83,7.78l3.35-6,1.18.47,5.24,2.08,1.18.47-1.61,6.51a44.47,44.47,0,0,1,5.91,3.73l5.31-4.22.92.87,4.07,3.9.92.88-4,5.46a42.87,42.87,0,0,1,4,5.71l6.57-1.82c.16.39.33.78.5,1.16l2.22,5.19.51,1.16-5.76,3.46a43.07,43.07,0,0,1,1.52,6.81l6.79.88v1.26c0,1.88,0,3.76,0,5.64,0,.43,0,.85,0,1.27l-6.64,1a43.11,43.11,0,0,1-1.23,6.88l5.92,3.33c-.16.39-.32.79-.47,1.18-.7,1.75-1.39,3.49-2.08,5.24-.16.39-.32.79-.47,1.18l-6.55-1.62a42.83,42.83,0,0,1-3.77,5.88l4.2,5.28-.88.92-3.9,4.07-.88.92-5.49-4a42,42,0,0,1-5.74,4l1.81,6.53-1.17.5-5.18,2.22-1.17.51-3.47-5.79a43.1,43.1,0,0,1-6.83,1.46l-.87,6.74h-1.27l-5.64,0h-1.27l-1-6.67a44.48,44.48,0,0,1-6.87-1.29l-3.31,5.88-1.18-.47-5.24-2.08-1.18-.47,1.63-6.59a42.87,42.87,0,0,1-5.85-3.82l-5.25,4.18-.92-.88-4.07-3.9-.92-.88,4-5.53a42.48,42.48,0,0,1-3.21-4.57l-6.66,1.85-.5-1.17-2.23-5.18-.5-1.17,5.7-3.42Zm27.73-.13a19.13,19.13,0,1,0,0-27.06A19.14,19.14,0,0,0,1292.71,662.73Z"
           class="cls-6" />
      </g>
      <circle
         id="circle60"
         r="56.88"
         cy="97.86"
         cx="924.7"
         class="cls-7" />
      <polygon
         id="polygon62"
         points="956.93 99.39 923.17 99.39 923.17 52.36 926.24 52.36 926.24 96.33 956.93 96.33 956.93 99.39"
         class="cls-8" />
      <path
         id="path64"
         transform="translate(-122 -94.68)"
         d="M935.33,694.12A246.31,246.31,0,0,1,760,766.74v283.35c141.91,0,275.33-55.26,375.68-155.61Z"
         class="cls-9" />
      <path
         id="path66"
         transform="translate(-122 -94.68)"
         d="M584.69,694.12,384.33,894.48C484.68,994.83,618.1,1050.09,760,1050.09V766.74A246.31,246.31,0,0,1,584.69,694.12Z"
         class="cls-10" />
      <path
         id="path68"
         transform="translate(-122 -94.68)"
         d="M935.33,694.12A246.31,246.31,0,0,1,760,766.74v169.6a464.46,464.46,0,0,0,296-121.5Z"
         class="cls-11" />
      <path
         id="path70"
         transform="translate(-122 -94.68)"
         d="M762.07,822.43a308,308,0,0,1-46.21-3.5.64.64,0,0,1,.19-1.26,305,305,0,0,0,332.64-198.79.64.64,0,0,1,.82-.38.63.63,0,0,1,.38.81A306.63,306.63,0,0,1,762.07,822.43Z"
         class="cls-7" />
      <path
         id="path72"
         transform="translate(-122 -94.68)"
         d="M459.06,561.09a.63.63,0,0,1-.63-.54A306.68,306.68,0,0,1,619.29,244.82a303.55,303.55,0,0,1,131.6-34.93h0a.64.64,0,0,1,0,1.28,302.11,302.11,0,0,0-131,34.77A305.43,305.43,0,0,0,459.69,560.36a.64.64,0,0,1-.54.73Z"
         class="cls-12" />
      <rect
         id="rect74"
         transform="translate(-480.05 478.02) rotate(-45)"
         height="63.68"
         width="489.46"
         y="686.71"
         x="267.56"
         class="cls-11" />
      <rect
         id="rect76"
         transform="translate(-454.26 475.12) rotate(-45)"
         height="32.17"
         width="151.3"
         y="669.89"
         x="446.02"
         class="cls-8" />
      <path
         id="path78"
         transform="translate(-122 -94.68)"
         d="M551.37,515.73H398.55a284.66,284.66,0,0,0,83.92,202.61L590.53,610.28A132.88,132.88,0,0,1,551.37,515.73Z"
         class="cls-7" />
      <path
         id="path80"
         transform="translate(-122 -94.68)"
         d="M557.4,313.12a284.64,284.64,0,0,0-83.93,202.61H626.29A133.73,133.73,0,0,1,760,382V229.19A284.65,284.65,0,0,0,557.4,313.12Z"
         class="cls-12" />
      <path
         id="path82"
         transform="translate(-122 -94.68)"
         d="M1046.55,515.73c0-163.81-133.91-286.54-286.54-286.54V382c61.36,0,93.85,39.52,94.55,39.16a133.72,133.72,0,0,1-189.1,189.11L557.4,718.34a286.54,286.54,0,0,0,489.15-202.61Z"
         class="cls-8" />
      <path
         id="path84"
         transform="translate(-122 -94.68)"
         d="M626.29,516.36H398.76a.63.63,0,0,1-.63-.63.64.64,0,0,1,.63-.64H626.29a.64.64,0,0,1,.64.64A.63.63,0,0,1,626.29,516.36Z"
         class="cls-8" />
      <polygon
         id="polygon86"
         points="555.88 503.31 510.86 458.28 647.03 322.11 717.38 392.46 906.65 203.19 953.77 250.31 1187.76 16.33 1232.79 61.35 953.77 340.37 906.65 293.24 717.38 482.51 647.03 412.16 555.88 503.31"
         class="cls-13" />
      <polygon
         id="polygon88"
         points="1251.02 101.88 1149.14 0 1251.02 0 1251.02 101.88"
         class="cls-13" />
      <line
         id="line90"
         y2="225.83"
         x2="971.27"
         y1="46.27"
         x1="1150.84"
         class="cls-14" />
      <rect
         id="rect92"
         transform="translate(61.36 809.45) rotate(-45)"
         height="1.27"
         width="253.94"
         y="230.09"
         x="1056.08"
         class="cls-13" />
      <line
         id="line94"
         y2="493.26"
         x2="572.03"
         y1="424.49"
         x1="640.8"
         class="cls-14" />
      <rect
         id="rect96"
         transform="translate(-300.07 582.6) rotate(-45)"
         height="1.27"
         width="97.25"
         y="552.92"
         x="679.79"
         class="cls-13" />
      <path
         id="path98"
         transform="translate(-122 -94.68)"
         d="M665.46,610.28,557.4,718.34a285.47,285.47,0,0,0,21.44,19.39L688.09,628.48A134.66,134.66,0,0,1,665.46,610.28Z"
         class="cls-15" />
      <path
         id="path100"
         transform="translate(-122 -94.68)"
         d="M565.05,174.93H442.35A22.3,22.3,0,0,0,420,197.23V292a22.3,22.3,0,0,0,22.31,22.3H554l31.73,27.9h1.68v-145A22.3,22.3,0,0,0,565.05,174.93Z"
         class="cls-16" />
      <rect
         id="rect102"
         height="56.3"
         width="22.33"
         y="127.17"
         x="322.96"
         class="cls-9" />
      <rect
         id="rect104"
         height="64.42"
         width="22.33"
         y="119.05"
         x="386.24"
         class="cls-9" />
      <rect
         id="rect106"
         height="78.93"
         width="22.33"
         y="104.54"
         x="416.01"
         class="cls-8" />
      <rect
         id="rect108"
         height="42.62"
         width="22.33"
         y="140.85"
         x="353.98"
         class="cls-9" />
    </g>
  </g>
</svg>
